<svg xmlns="http://www.w3.org/2000/svg" xmlns:xlink="http://www.w3.org/1999/xlink" viewBox="0 0 740.24 710.68"><defs><style>.cls-1{fill:none;}.cls-2{fill:#c3dbf2;}.cls-3{fill:#29abe2;}.cls-4{clip-path:url(#clip-path);}</style><clipPath id="clip-path" transform="translate(0 0)"><path class="cls-1" d="M622.78,305.05c1.31,94.07-69.73,146.52-47.47,237.49,11.89,48.59,8.17,100,18,149,.6,3,3.24,15.3-.85,17.46a4.1,4.1,0,0,1-3.15,0c-17.93-5.93-37.78,0-56.66,0H487.81c-17.42.08-18.11.19-21.83,0-17.76-.9-32.12-4.8-47.43-9.86-25.45-8.43-52.18-17.28-83.69-34.36-48.91-26.53-113-61.29-161-133.73-16.38-24.7-58.63-95.55-57.22-187.51,2-131.54,93.34-308.56,237.57-316C496.67,20.28,621.06,182.12,622.78,305.05Z"/></clipPath></defs><title>fARID-FOX</title><g id="Layer_2" data-name="Layer 2"><g id="Layer_1-2" data-name="Layer 1"><rect class="cls-1" y="21.39" width="740.24" height="687.86"/><path class="cls-2" d="M729.15,580.21c17.32-92-85.06-193.88-179.34-235.34-107.56-47.29-153.67,6.42-264-47.33C184.9,248.38,152.05,168.66,121,182.21c-32.66,14.22-25.1,114.5-5.85,187.22C183.27,626.94,441.92,705,459.81,706.21a189.82,189.82,0,0,0,29-.5c7.34-.78,10.71-1.64,16-2.5,31-5.08,60.71.55,79,4,4.54.86,5.59,1.18,7.16,1.44C636.23,716.24,716.25,648.69,729.15,580.21Z" transform="translate(0 0)"/><path class="cls-3" d="M622.67,305.05C622,336.63,612.11,364,595.89,408.68c-12.15,33.44-21.74,50.84-24,82.94-.95,13.58.47,26,3.32,50.92,10.47,91.62,15.68,137.44,18,149,.6,3,3.24,15.3-.86,17.46a4.08,4.08,0,0,1-3.14,0c-17.94-5.93-37.78,0-56.67,0H487.71c-17.42.08-18.11.19-21.83,0-17.77-.9-32.12-4.8-47.43-9.86-51.07-16.91-83.69-34.36-83.69-34.36-26.24-14-113.66-60.81-161-133.73a415.2,415.2,0,0,1-24.17-43.51,381.31,381.31,0,0,1-15.75-39.28,195.1,195.1,0,0,1-6.63-21.77c-1.76-7.64-1.74-10-4.45-23.45-1.56-7.72-2-9.17-3.81-17.59-1.37-6.43-3.29-15.88-5.36-27.64A73.73,73.73,0,0,1,127,338.29c64.66-67.07,210.57,52.15,325.25-3.75,82.48-40.21,92.38-143.67,130-135C609.89,205.92,623.46,265.44,622.67,305.05Z" transform="translate(0 0)"/><g class="cls-4"><image width="472" height="709" transform="translate(122.46 0)" xlink:href="D:\Farid\photoshop\Pas_Foto.png"/><path class="cls-1" d="M625.84,379.64c2.58-40.07-8-70.86-12.87-84.93-4-11.57-93.71-263-249.62-263.06-131.93-.06-249.5,179.86-242.89,337.78C131,621,452.1,709,466,709h99.2c17.51,0,22,3.77,27.28,0,11.75-8.39,7.74-32.56,6.38-41.38-1.07-6.89-17.91-119.94.44-199.06C609.33,425.24,623.16,421.25,625.84,379.64Z" transform="translate(0 0)"/></g></g></g></svg>